[ConversionWorker] Logging FFmpeg output to: ffmpeg_logs\ffmpeg_conversion_高冷10_wav_20250525_173855.log\n[ConversionWorker] Getting duration with command: ffprobe -v error -show_entries format=duration -of default=noprint_wrappers=1:nokey=1 Z:\Story\高冷\高冷10.wav\n[ConversionWorker] Duration for 高冷10.wav: 3277850 ms\n[ConversionWorker] Starting FFmpeg for 高冷10.wav: ffmpeg -i Z:\Story\高冷\高冷10.wav -b:a 128k -vn -y -loglevel error -stats -progress pipe:1 Z:\Story\高冷\高冷10.mp3\n[ConversionWorker] FFmpeg process started. PID: 29556\n[STDOUT RAW] bitrate= 123.7kbits/s\n[STDOUT RAW] total_size=76076\n[STDOUT RAW] out_time_us=4921958\n[STDOUT RAW] out_time_ms=4921958\n[STDOUT RAW] out_time=00:00:04.921958\n[STDOUT RAW] dup_frames=0\n[STDOUT RAW] drop_frames=0\n[STDOUT RAW] speed=9.35x\n[STDOUT RAW] progress=continue\n[STDERR RAW] size=      74KiB time=00:00:04.92 bitrate= 123.7kbits/s speed=9.35x\n[STDOUT RAW] bitrate= 125.8kbits/s\n[STDOUT RAW] total_size=154028\n[STDOUT RAW] out_time_us=9793958\n[STDOUT RAW] out_time_ms=9793958\n[STDOUT RAW] out_time=00:00:09.793958\n[STDOUT RAW] dup_frames=0\n[STDOUT RAW] drop_frames=0\n[STDOUT RAW] speed=9.44x\n[STDOUT RAW] progress=continue\n[STDERR RAW] size=     150KiB time=00:00:09.79 bitrate= 125.8kbits/s speed=9.44x\n[STDOUT RAW] bitrate= 126.6kbits/s\n[STDOUT RAW] total_size=235436\n[STDOUT RAW] out_time_us=14881958\n[STDOUT RAW] out_time_ms=14881958\n[STDOUT RAW] out_time=00:00:14.881958\n[STDOUT RAW] dup_frames=0\n[STDOUT RAW] drop_frames=0\n[STDOUT RAW] speed= 9.6x\n[STDOUT RAW] progress=continue\n[STDERR RAW] size=     230KiB time=00:00:14.88 bitrate= 126.6kbits/s speed= 9.6x\n[STDOUT RAW] bitrate= 107.6kbits/s\n[STDOUT RAW] total_size=1310720\n[STDOUT RAW] out_time_us=97465958\n[STDOUT RAW] out_time_ms=97465958\n[STDOUT RAW] out_time=00:01:37.465958\n[STDOUT RAW] dup_frames=0\n[STDOUT RAW] drop_frames=0\n[STDOUT RAW] speed=47.1x\n[STDOUT RAW] progress=continue\n[STDERR RAW] size=    1280KiB time=00:01:37.46 bitrate= 107.6kbits/s speed=47.1x\n[STDOUT RAW] bitrate= 119.6kbits/s\n[STDOUT RAW] total_size=3145728\n[STDOUT RAW] out_time_us=210481958\n[STDOUT RAW] out_time_ms=210481958\n[STDOUT RAW] out_time=00:03:30.481958\n[STDOUT RAW] dup_frames=0\n[STDOUT RAW] drop_frames=0\n[STDOUT RAW] speed=81.6x\n[STDOUT RAW] progress=continue\n[STDERR RAW] size=    3072KiB time=00:03:30.48 bitrate= 119.6kbits/s speed=81.6x\n[STDOUT RAW] bitrate= 125.4kbits/s\n[STDOUT RAW] total_size=4980736\n[STDOUT RAW] out_time_us=317713958\n[STDOUT RAW] out_time_ms=317713958\n[STDOUT RAW] out_time=00:05:17.713958\n[STDOUT RAW] dup_frames=0\n[STDOUT RAW] drop_frames=0\n[STDOUT RAW] speed= 103x\n[STDOUT RAW] progress=continue\n[STDERR RAW] size=    4864KiB time=00:05:17.71 bitrate= 125.4kbits/s speed= 103x\n[STDOUT RAW] bitrate= 123.8kbits/s\n[STDOUT RAW] total_size=6553600\n[STDOUT RAW] out_time_us=423457958\n[STDOUT RAW] out_time_ms=423457958\n[STDOUT RAW] out_time=00:07:03.457958\n[STDOUT RAW] dup_frames=0\n[STDOUT RAW] drop_frames=0\n[STDOUT RAW] speed= 117x\n[STDOUT RAW] progress=continue\n[STDERR RAW] size=    6400KiB time=00:07:03.45 bitrate= 123.8kbits/s speed= 117x\n[STDOUT RAW] bitrate= 127.8kbits/s\n[STDOUT RAW] total_size=8388608\n[STDOUT RAW] out_time_us=524977958\n[STDOUT RAW] out_time_ms=524977958\n[STDOUT RAW] out_time=00:08:44.977958\n[STDOUT RAW] dup_frames=0\n[STDOUT RAW] drop_frames=0\n[STDOUT RAW] speed= 127x\n[STDOUT RAW] progress=continue\n[STDERR RAW] size=    8192KiB time=00:08:44.97 bitrate= 127.8kbits/s speed= 127x\n[STDOUT RAW] bitrate= 127.0kbits/s\n[STDOUT RAW] total_size=9961472\n[STDOUT RAW] out_time_us=627385958\n[STDOUT RAW] out_time_ms=627385958\n[STDOUT RAW] out_time=00:10:27.385958\n[STDOUT RAW] dup_frames=0\n[STDOUT RAW] drop_frames=0\n[STDOUT RAW] speed= 135x\n[STDOUT RAW] progress=continue\n[STDERR RAW] size=    9728KiB time=00:10:27.38 bitrate= 127.0kbits/s speed= 135x\n[STDOUT RAW] bitrate= 125.6kbits/s\n[STDOUT RAW] total_size=11534336\n[STDOUT RAW] out_time_us=734809958\n[STDOUT RAW] out_time_ms=734809958\n[STDOUT RAW] out_time=00:12:14.809958\n[STDOUT RAW] dup_frames=0\n[STDOUT RAW] drop_frames=0\n[STDOUT RAW] speed= 142x\n[STDOUT RAW] progress=continue\n[STDERR RAW] size=   11264KiB time=00:12:14.80 bitrate= 125.6kbits/s speed= 142x\n[STDOUT RAW] bitrate= 127.8kbits/s\n[STDOUT RAW] total_size=13369344\n[STDOUT RAW] out_time_us=837025958\n[STDOUT RAW] out_time_ms=837025958\n[STDOUT RAW] out_time=00:13:57.025958\n[STDOUT RAW] dup_frames=0\n[STDOUT RAW] drop_frames=0\n[STDOUT RAW] speed= 148x\n[STDOUT RAW] progress=continue\n[STDERR RAW] size=   13056KiB time=00:13:57.02 bitrate= 127.8kbits/s speed= 148x\n[STDOUT RAW] bitrate= 126.6kbits/s\n[STDOUT RAW] total_size=14942208\n[STDOUT RAW] out_time_us=944233958\n[STDOUT RAW] out_time_ms=944233958\n[STDOUT RAW] out_time=00:15:44.233958\n[STDOUT RAW] dup_frames=0\n[STDOUT RAW] drop_frames=0\n[STDOUT RAW] speed= 152x\n[STDOUT RAW] progress=continue\n[STDERR RAW] size=   14592KiB time=00:15:44.23 bitrate= 126.6kbits/s speed= 152x\n[STDOUT RAW] bitrate= 126.0kbits/s\n[STDOUT RAW] total_size=16515072\n[STDOUT RAW] out_time_us=1048705958\n[STDOUT RAW] out_time_ms=1048705958\n[STDOUT RAW] out_time=00:17:28.705958\n[STDOUT RAW] dup_frames=0\n[STDOUT RAW] drop_frames=0\n[STDOUT RAW] speed= 156x\n[STDOUT RAW] progress=continue\n[STDERR RAW] size=   16128KiB time=00:17:28.70 bitrate= 126.0kbits/s speed= 156x\n[STDOUT RAW] bitrate= 128.0kbits/s\n[STDOUT RAW] total_size=18350080\n[STDOUT RAW] out_time_us=1147129958\n[STDOUT RAW] out_time_ms=1147129958\n[STDOUT RAW] out_time=00:19:07.129958\n[STDOUT RAW] dup_frames=0\n[STDOUT RAW] drop_frames=0\n[STDOUT RAW] speed= 159x\n[STDOUT RAW] progress=continue\n[STDERR RAW] size=   17920KiB time=00:19:07.12 bitrate= 128.0kbits/s speed= 159x\n[STDOUT RAW] bitrate= 127.0kbits/s\n[STDOUT RAW] total_size=19922944\n[STDOUT RAW] out_time_us=1254601958\n[STDOUT RAW] out_time_ms=1254601958\n[STDOUT RAW] out_time=00:20:54.601958\n[STDOUT RAW] dup_frames=0\n[STDOUT RAW] drop_frames=0\n[STDOUT RAW] speed= 162x\n[STDOUT RAW] progress=continue\n[STDERR RAW] size=   19456KiB time=00:20:54.60 bitrate= 127.0kbits/s speed= 162x\n[STDOUT RAW] bitrate= 126.7kbits/s\n[STDOUT RAW] total_size=21495808\n[STDOUT RAW] out_time_us=1357609958\n[STDOUT RAW] out_time_ms=1357609958\n[STDOUT RAW] out_time=00:22:37.609958\n[STDOUT RAW] dup_frames=0\n[STDOUT RAW] drop_frames=0\n[STDOUT RAW] speed= 164x\n[STDOUT RAW] progress=continue\n[STDERR RAW] size=   20992KiB time=00:22:37.60 bitrate= 126.7kbits/s speed= 164x\n[STDOUT RAW] bitrate= 126.7kbits/s\n[STDOUT RAW] total_size=23068672\n[STDOUT RAW] out_time_us=1456513958\n[STDOUT RAW] out_time_ms=1456513958\n[STDOUT RAW] out_time=00:24:16.513958\n[STDOUT RAW] dup_frames=0\n[STDOUT RAW] drop_frames=0\n[STDOUT RAW] speed= 166x\n[STDOUT RAW] progress=continue\n[STDERR RAW] size=   22528KiB time=00:24:16.51 bitrate= 126.7kbits/s speed= 166x\n[STDOUT RAW] bitrate= 126.8kbits/s\n[STDOUT RAW] total_size=24641536\n[STDOUT RAW] out_time_us=1554769958\n[STDOUT RAW] out_time_ms=1554769958\n[STDOUT RAW] out_time=00:25:54.769958\n[STDOUT RAW] dup_frames=0\n[STDOUT RAW] drop_frames=0\n[STDOUT RAW] speed= 168x\n[STDOUT RAW] progress=continue\n[STDERR RAW] size=   24064KiB time=00:25:54.76 bitrate= 126.8kbits/s speed= 168x\n[STDOUT RAW] bitrate= 127.1kbits/s\n[STDOUT RAW] total_size=26214400\n[STDOUT RAW] out_time_us=1650385958\n[STDOUT RAW] out_time_ms=1650385958\n[STDOUT RAW] out_time=00:27:30.385958\n[STDOUT RAW] dup_frames=0\n[STDOUT RAW] drop_frames=0\n[STDOUT RAW] speed= 168x\n[STDOUT RAW] progress=continue\n[STDERR RAW] size=   25600KiB time=00:27:30.38 bitrate= 127.1kbits/s speed= 168x\n[STDOUT RAW] bitrate= 126.9kbits/s\n[STDOUT RAW] total_size=27787264\n[STDOUT RAW] out_time_us=1751233958\n[STDOUT RAW] out_time_ms=1751233958\n[STDOUT RAW] out_time=00:29:11.233958\n[STDOUT RAW] dup_frames=0\n[STDOUT RAW] drop_frames=0\n[STDOUT RAW] speed= 170x\n[STDOUT RAW] progress=continue\n[STDERR RAW] size=   27136KiB time=00:29:11.23 bitrate= 126.9kbits/s speed= 170x\n[STDOUT RAW] bitrate= 127.8kbits/s\n[STDOUT RAW] total_size=29622272\n[STDOUT RAW] out_time_us=1853785958\n[STDOUT RAW] out_time_ms=1853785958\n[STDOUT RAW] out_time=00:30:53.785958\n[STDOUT RAW] dup_frames=0\n[STDOUT RAW] drop_frames=0\n[STDOUT RAW] speed= 171x\n[STDOUT RAW] progress=continue\n[STDERR RAW] size=   28928KiB time=00:30:53.78 bitrate= 127.8kbits/s speed= 171x\n[STDOUT RAW] bitrate= 127.4kbits/s\n[STDOUT RAW] total_size=31195136\n[STDOUT RAW] out_time_us=1959625958\n[STDOUT RAW] out_time_ms=1959625958\n[STDOUT RAW] out_time=00:32:39.625958\n[STDOUT RAW] dup_frames=0\n[STDOUT RAW] drop_frames=0\n[STDOUT RAW] speed= 173x\n[STDOUT RAW] progress=continue\n[STDERR RAW] size=   30464KiB time=00:32:39.62 bitrate= 127.4kbits/s speed= 173x\n[STDOUT RAW] bitrate= 127.0kbits/s\n[STDOUT RAW] total_size=32768000\n[STDOUT RAW] out_time_us=2064505958\n[STDOUT RAW] out_time_ms=2064505958\n[STDOUT RAW] out_time=00:34:24.505958\n[STDOUT RAW] dup_frames=0\n[STDOUT RAW] drop_frames=0\n[STDOUT RAW] speed= 174x\n[STDOUT RAW] progress=continue\n[STDERR RAW] size=   32000KiB time=00:34:24.50 bitrate= 127.0kbits/s speed= 174x\n[STDOUT RAW] bitrate= 127.4kbits/s\n[STDOUT RAW] total_size=34603008\n[STDOUT RAW] out_time_us=2173585958\n[STDOUT RAW] out_time_ms=2173585958\n[STDOUT RAW] out_time=00:36:13.585958\n[STDOUT RAW] dup_frames=0\n[STDOUT RAW] drop_frames=0\n[STDOUT RAW] speed= 176x\n[STDOUT RAW] progress=continue\n[STDERR RAW] size=   33792KiB time=00:36:13.58 bitrate= 127.4kbits/s speed= 176x\n[STDOUT RAW] bitrate= 127.3kbits/s\n[STDOUT RAW] total_size=36175872\n[STDOUT RAW] out_time_us=2273809958\n[STDOUT RAW] out_time_ms=2273809958\n[STDOUT RAW] out_time=00:37:53.809958\n[STDOUT RAW] dup_frames=0\n[STDOUT RAW] drop_frames=0\n[STDOUT RAW] speed= 176x\n[STDOUT RAW] progress=continue\n[STDERR RAW] size=   35328KiB time=00:37:53.80 bitrate= 127.3kbits/s speed= 176x\n[STDOUT RAW] bitrate= 127.5kbits/s\n[STDOUT RAW] total_size=37748736\n[STDOUT RAW] out_time_us=2369305958\n[STDOUT RAW] out_time_ms=2369305958\n[STDOUT RAW] out_time=00:39:29.305958\n[STDOUT RAW] dup_frames=0\n[STDOUT RAW] drop_frames=0\n[STDOUT RAW] speed= 177x\n[STDOUT RAW] progress=continue\n[STDERR RAW] size=   36864KiB time=00:39:29.30 bitrate= 127.5kbits/s speed= 177x\n[STDOUT RAW] bitrate= 128.0kbits/s\n[STDOUT RAW] total_size=39321600\n[STDOUT RAW] out_time_us=2457865958\n[STDOUT RAW] out_time_ms=2457865958\n[STDOUT RAW] out_time=00:40:57.865958\n[STDOUT RAW] dup_frames=0\n[STDOUT RAW] drop_frames=0\n[STDOUT RAW] speed= 176x\n[STDOUT RAW] progress=continue\n[STDERR RAW] size=   38400KiB time=00:40:57.86 bitrate= 128.0kbits/s speed= 176x\n[STDOUT RAW] bitrate= 127.3kbits/s\n[STDOUT RAW] total_size=40632320\n[STDOUT RAW] out_time_us=2553289958\n[STDOUT RAW] out_time_ms=2553289958\n[STDOUT RAW] out_time=00:42:33.289958\n[STDOUT RAW] dup_frames=0\n[STDOUT RAW] drop_frames=0\n[STDOUT RAW] speed= 177x\n[STDOUT RAW] progress=continue\n[STDERR RAW] size=   39680KiB time=00:42:33.28 bitrate= 127.3kbits/s speed= 177x\n[STDOUT RAW] bitrate= 127.6kbits/s\n[STDOUT RAW] total_size=42205184\n[STDOUT RAW] out_time_us=2647033958\n[STDOUT RAW] out_time_ms=2647033958\n[STDOUT RAW] out_time=00:44:07.033958\n[STDOUT RAW] dup_frames=0\n[STDOUT RAW] drop_frames=0\n[STDOUT RAW] speed= 177x\n[STDOUT RAW] progress=continue\n[STDOUT RAW] bitrate= 127.2kbits/s\n[STDERR RAW] size=   41216KiB time=00:44:07.03 bitrate= 127.6kbits/s speed= 177x\n[STDOUT RAW] total_size=43515904\n[STDOUT RAW] out_time_us=2736265958\n[STDOUT RAW] out_time_ms=2736265958\n[STDOUT RAW] out_time=00:45:36.265958\n[STDOUT RAW] dup_frames=0\n[STDOUT RAW] drop_frames=0\n[STDOUT RAW] speed= 177x\n[STDOUT RAW] progress=continue\n[STDERR RAW] size=   42496KiB time=00:45:36.26 bitrate= 127.2kbits/s speed= 177x\n[STDOUT RAW] bitrate= 127.5kbits/s\n[STDOUT RAW] total_size=45088768\n[STDOUT RAW] out_time_us=2828905958\n[STDOUT RAW] out_time_ms=2828905958\n[STDOUT RAW] out_time=00:47:08.905958\n[STDOUT RAW] dup_frames=0\n[STDOUT RAW] drop_frames=0\n[STDOUT RAW] speed= 177x\n[STDOUT RAW] progress=continue\n[STDERR RAW] size=   44032KiB time=00:47:08.90 bitrate= 127.5kbits/s speed= 177x\n[STDOUT RAW] bitrate= 127.6kbits/s\n[STDOUT RAW] total_size=46661632\n[STDOUT RAW] out_time_us=2924473958\n[STDOUT RAW] out_time_ms=2924473958\n[STDOUT RAW] out_time=00:48:44.473958\n[STDOUT RAW] dup_frames=0\n[STDOUT RAW] drop_frames=0\n[STDOUT RAW] speed= 177x\n[STDOUT RAW] progress=continue\n[STDERR RAW] size=   45568KiB time=00:48:44.47 bitrate= 127.6kbits/s speed= 177x\n[STDOUT RAW] bitrate= 127.9kbits/s\n[STDOUT RAW] total_size=48234496\n[STDOUT RAW] out_time_us=3016945958\n[STDOUT RAW] out_time_ms=3016945958\n[STDOUT RAW] out_time=00:50:16.945958\n[STDOUT RAW] dup_frames=0\n[STDOUT RAW] drop_frames=0\n[STDOUT RAW] speed= 177x\n[STDOUT RAW] progress=continue\n[STDERR RAW] size=   47104KiB time=00:50:16.94 bitrate= 127.9kbits/s speed= 177x\n[STDOUT RAW] bitrate= 127.5kbits/s\n[STDOUT RAW] total_size=49545216\n[STDOUT RAW] out_time_us=3109393958\n[STDOUT RAW] out_time_ms=3109393958\n[STDOUT RAW] out_time=00:51:49.393958\n[STDOUT RAW] dup_frames=0\n[STDOUT RAW] drop_frames=0\n[STDOUT RAW] speed= 177x\n[STDOUT RAW] progress=continue\n[STDERR RAW] size=   48384KiB time=00:51:49.39 bitrate= 127.5kbits/s speed= 177x\n[STDOUT RAW] bitrate= 127.9kbits/s\n[STDOUT RAW] total_size=51118080\n[STDOUT RAW] out_time_us=3197401958\n[STDOUT RAW] out_time_ms=3197401958\n[STDOUT RAW] out_time=00:53:17.401958\n[STDOUT RAW] dup_frames=0\n[STDOUT RAW] drop_frames=0\n[STDOUT RAW] speed= 177x\n[STDOUT RAW] progress=continue\n[STDERR RAW] size=   49920KiB time=00:53:17.40 bitrate= 127.9kbits/s speed= 177x\n[STDERR RAW] size=   51218KiB time=00:54:37.85 bitrate= 128.0kbits/s speed= 177x\n[STDOUT RAW] bitrate= 128.0kbits/s\n[STDOUT RAW] total_size=52447148\n[STDOUT RAW] out_time_us=3277850000\n[STDOUT RAW] out_time_ms=3277850000\n[STDOUT RAW] out_time=00:54:37.850000\n[STDOUT RAW] dup_frames=0\n[STDOUT RAW] drop_frames=0\n[STDOUT RAW] speed= 177x\n[STDOUT RAW] progress=end\n[ConversionWorker] STDERR pipe closed signal received.\n[ConversionWorker] Detected 'progress=end' for 高冷10.wav\n[ConversionWorker] STDOUT pipe closed signal received.\n[ConversionWorker] Process finished and both stream pipes closed. Exiting loop.\n[ConversionWorker] Waiting for reader threads to join...\n[ConversionWorker] FFmpeg process ended. Return code: 0\n[ConversionWorker] Closing FFmpeg log file.\n